# xmcd CD database file
#
# Track frame offsets:
#	150
#	15298
#	35515
#	54380
#	79203
#	92393
#	104470
#	133630
#	158363
#	185713
#
# Disc length: 2657 seconds
#
# Revision: 0
# Processed by: cddbd v1.4PL0 Copyright (c) Steve Scherf et al.
# Submitted via: CDex 1.40Beta9
#
DISCID=6e0a5f0a
DTITLE=Carlos Morrero Band - Tell Mama I Had To Play The Blues
DYEAR=1900
DGENRE=Blues
TTITLE0=When I'm Dancin' With My Baby
TTITLE1=Nobody Knows You When You're Down and Out
TTITLE2=You Don't Love Me
TTITLE3=Old Man Blues
TTITLE4=Crossroads
TTITLE5=Key to the Highway
TTITLE6=Stormy Monday
TTITLE7=Moondance
TTITLE8=After Midnight
TTITLE9=Rikki Don't Live Here
EXTD=ID3G: 0
EXTT0=
EXTT1=
EXTT2=
EXTT3=
EXTT4=
EXTT5=
EXTT6=
EXTT7=
EXTT8=
EXTT9=
PLAYORDER=
